<?xml version="1.0" encoding="UTF-8"?>
<svg id="_图层_2" data-name="图层 2" xmlns="http://www.w3.org/2000/svg" width="158.87" height="35.53" viewBox="0 0 158.87 35.53">
  <defs>
    <style>
      .cls-1 {
        fill: #3181b9;
      }

      .cls-2 {
        fill: #7fb7c6;
      }

      .cls-3 {
        fill: #569cba;
      }

      .cls-4 {
        fill: #67a6bd;
      }

      .cls-5 {
        fill: #2078be;
      }

      .cls-6 {
        fill: #e2502f;
      }

      .cls-7 {
        fill: #f3b333;
      }

      .cls-8 {
        fill: #443644;
      }

      .cls-9 {
        fill: #2c9bd7;
      }

      .cls-10 {
        fill: #7eb02a;
      }

      .cls-11 {
        fill: #428fba;
      }
    </style>
  </defs>
  <g id="_图层_1-2" data-name="图层 1">
    <g>
      <g>
        <polygon class="cls-6" points="20.57 .85 12.56 6.85 12.56 16.31 20.57 9.58 34.03 9.58 34.03 .85 20.57 .85"/>
        <polygon class="cls-7" points="33.98 21.58 28.84 13.32 19.39 13.32 25.26 21.58 25.26 35.38 33.98 35.38 33.98 21.58"/>
        <polygon class="cls-10" points="13.8 35.38 22.07 30.2 22.07 20.75 13.8 26.61 0 26.61 0 35.38 13.8 35.38"/>
        <polygon class="cls-9" points="0 14.33 5.68 22.95 15.13 22.95 9.26 14.33 9.26 .85 0 .85 0 14.33"/>
      </g>
      <g>
        <polygon class="cls-8" points="44.86 4.62 43.41 .06 39.29 .06 40.67 4.62 44.86 4.62"/>
        <polygon class="cls-8" points="105.52 3.65 104.84 .42 101.06 .42 101.67 3.65 105.52 3.65"/>
        <polygon class="cls-8" points="116.52 .42 112.67 .42 111.52 3.65 115.3 3.65 116.52 .42"/>
        <polygon class="cls-8" points="112.01 10.63 116.1 10.63 115.18 6.84 111.4 6.84 112.01 10.63"/>
        <path class="cls-8" d="m128.88,1.78c-.02-.11-.14-.61-.52-.32-.28.21-.95.29-1.37.32h-4.99l.97-1.78h-3.98l-2.04,3.34h6.16l-.41,4.29-.58,1.09-1.16-2.86h-4.19l2.9,7.15-4.21,7.46h4.22l1.79-3.1,1.14,3.1h4.26l-2.96-7.29,2.72-4.63.49-5.21h1.6l.15-1.55h0v-.02s0,0,0,0Z"/>
        <path class="cls-8" d="m141.53.02l-1.12,11.88-2.87,8.6h3.64l2.82-8.45h.07l.6-6.3h13.66l.54-5.73h-17.33Zm13.16,4.13h-9.88l.24-2.53h8.65l1.34-1.18-.35,3.71Z"/>
        <path class="cls-8" d="m95.36.59c-.03-.13-.16-.59-.52-.31-.25.19-.83.27-1.25.31h-15.49l-.14,1.46h17.26l.14-1.46Z"/>
        <path class="cls-8" d="m99.79,10.63h3.68l1.86-4.94h1.02l-.51,5.45h3.88l.51-5.45h7.12l.14-1.46s-.12-.63-.52-.33c-.32.24-1.14.31-1.53.33h-5.07l.4-4.23h-3.88l-.4,4.23h-7.12l-.14,1.46h2.42l-1.86,4.94Z"/>
        <path class="cls-8" d="m114.79,16.9l.31-3.24h1.8l.16-1.71s-.09-.66-.51-.34c-.26.2-.88.28-1.3.32h-9.97l.52-1.16h-3.88l-.52,1.16h-2.76l-.16,1.74h2.15l-1.35,3.13,3.66.89-3.8.55-.04,2.25,8.33-1.71,7.81,1.69.22-2.28-3.32-.6,2.65-.68Zm-3.71-1.16l-3.28.78-4.16-1.06.85-1.81h6.78l-.2,2.08Z"/>
        <path class="cls-8" d="m138.83,10.17l-2.1.61.37-3.95h2.21l.15-1.6c-.03-.14-.16-.62-.52-.34-.31.23-1.09.32-1.49.34h-.21l.49-5.22h-3.88l-.49,5.22h-2.38l-.15,1.6h2.38l-.47,4.97-2.63.75-.16,1.74,2.62-.72-.51,5.38h-2.38l-.14,1.53h6.27l.75-7.94,2.11-.72.16-1.67Z"/>
        <path class="cls-8" d="m157.56,7.94c-.28.21-.94.29-1.37.32h-2.4l.13-1.43h-3.81l-.13,1.43h-4.8l-.15,1.6h4.8l-.23,2.45h-4.8l-.77,8.18h12.91l.77-8.18h-4.29l.23-2.45h4.29l.15-1.6c-.02-.09-.13-.62-.52-.32Zm-3.75,5.47l-.46,4.91h-5.35l.36-3.78h4.12l1.33-1.12Z"/>
        <path class="cls-8" d="m95.61,6.52c-.26.2-.87.28-1.3.32h-18.07l-.14,1.46h4.5l-5.79,8.42h3.81l5.85-8.42h3.34l-.79,8.38h7.83l.14-1.44v-.02c-.02-.1-.14-.61-.52-.32-.28.21-.96.29-1.38.32h-2.04l.65-6.91h4.29l.14-1.46c-.02-.12-.15-.6-.52-.32Z"/>
        <polygon class="cls-8" points="75.02 4.62 73.58 .06 69.46 .06 70.83 4.62 75.02 4.62"/>
        <path class="cls-8" d="m65.28,8.27c-.42.31-1.74.34-1.74.34h-6.02l.27-2.89h2.83l.14-1.46c-.02-.11-.15-.61-.52-.32-.28.21-.93.29-1.35.32h-8.21l.8-2.02,8.83-.07,1.23,4.67h4.26l-1.36-4.88c-.27-.98-1.05-1.2-1.53-1.25h-.4s0,0,0,0l-10.37-.03.3-.65h-4.19l-3.1,6.81h4.22l.61-1.12h3.92l-.27,2.89h-8.65l-.14,1.46h8.65l-.48,5.11h-1.06l-.14,1.53h4.94l.63-6.65h8.28l.14-1.46c0-.06-.11-.64-.52-.34Z"/>
        <path class="cls-8" d="m51.08,11.54h-2.26c-.52.02-1.84.21-2.4,1.56l-1.27,3.63h4.09l1.85-5.18Z"/>
        <path class="cls-8" d="m63.86,13.09c-.31-1.34-1.59-1.54-2.11-1.56h-2.26l.87,5.18h4.09l-.59-3.63Z"/>
        <path class="cls-8" d="m64.36,18.03c-.29.22-1,.3-1.41.32l-17.25.05c-2.3-.02-2.67-1.58-2.69-2.51l.86-9.06h-5.69l-.15,1.57h1.81l-.95,10.01h-1.51l-.2,2.08h27.5l.2-2.14c-.02-.11-.15-.6-.52-.32Z"/>
        <path class="cls-8" d="m94.54,18.04c-.27.2-.9.28-1.32.32l-17.34.05c-2.3-.02-2.67-1.58-2.69-2.51l.86-9.06h-5.69l-.15,1.57h1.81l-.95,10.01h-1.51l-.2,2.08h27.5l.2-2.14c-.03-.13-.16-.59-.52-.31Z"/>
      </g>
      <path class="cls-8" d="m40.73,35.5l.95-10.59h8.79l-.1,1.17h-5.77l-.32,3.53h4.02l-.11,1.19h-4.02l-.32,3.53h5.77l-.1,1.17h-8.79Z"/>
      <path class="cls-8" d="m63.19,24.92h3l-.59,6.56c-.1,1.1-.77,2.05-2.01,2.84-1.24.79-2.69,1.19-4.33,1.19h-4.55l.95-10.59h3.02l-.84,9.42h2.25c.49,0,1.18-.21,1.55-.44.36-.23.83-.73.86-1.05l.71-7.92Z"/>
      <path class="cls-8" d="m70.45,35.5l.95-10.59h8.79l-.1,1.17h-5.77l-.32,3.53h4.02l-.11,1.19h-4.02l-.32,3.53h5.77l-.1,1.17h-8.79Z"/>
      <path class="cls-8" d="m84.42,35.5l.95-10.59h7.04c.96,0,1.76.23,2.4.7s.94,1.02.88,1.66l-.06.64c-.05.53-.36,1.03-.94,1.52-.58.48-1.5.73-2.76.73h1.75c.48,0,.88.12,1.2.35.32.23.47.51.44.84l-.37,4.16h-3l.32-3.53c.03-.32-.12-.6-.44-.83-.32-.23-1.23-.35-1.72-.35h-2.25l-.42,4.7h-3.02Zm3.54-5.89h2.25c.49,0,.92-.12,1.28-.35s.56-.51.59-.83l.1-1.17c.03-.33-.12-.61-.44-.84-.32-.23-.73-.35-1.22-.35h-2.25l-.32,3.53Z"/>
      <path class="cls-5" d="m100.15,35.5l.95-10.59h7.04c.96,0,1.76.23,2.4.7s.94,1.02.88,1.66l-.53,5.87c-.06.64-.45,1.19-1.18,1.66s-1.57.7-2.53.7h-7.04Zm3.12-1.17h2.25c.49,0,1.42-.12,1.79-.35.36-.23.56-.51.59-.83l.53-5.87c.03-.33-.12-.61-.44-.84-.32-.23-1.23-.35-1.72-.35h-2.25l-.74,8.24Z"/>
      <path class="cls-5" d="m118.7,31.48l.3-5.39h-4.02l.1-1.17h10.54l-.1,1.17h-3.52l-.3,5.39h-3Z"/>
      <polygon class="cls-5" points="118.62 32.6 118.43 35.53 121.43 35.53 121.61 32.6 118.62 32.6"/>
      <polygon class="cls-5" points="123.73 31.21 123.59 33.33 125.76 33.33 125.9 31.21 123.73 31.21"/>
      <polygon class="cls-1" points="126.95 26.93 126.8 29.2 129.12 29.2 129.27 26.93 126.95 26.93"/>
      <polygon class="cls-11" points="130.74 30.15 130.62 31.92 132.44 31.92 132.55 30.15 130.74 30.15"/>
      <polygon class="cls-3" points="132.47 26.06 132.34 27.94 134.27 27.96 134.4 26.07 132.47 26.06"/>
      <polygon class="cls-4" points="137.6 27.48 137.51 28.91 138.97 28.91 139.06 27.48 137.6 27.48"/>
      <polygon class="cls-2" points="137.97 24.87 137.91 25.83 138.9 25.83 138.96 24.87 137.97 24.87"/>
    </g>
  </g>
</svg>
